# Blender 4.2.1 LTS
# www.blender.org
mtllib board.mtl
o Chessboard_Surround
v -24.000000 0.000000 23.999998
v 24.000000 0.000000 23.999998
v -24.000000 0.000000 -23.999998
v 24.000000 0.000000 -23.999998
v -24.000000 -1.000000 -23.999998
v -24.000000 -1.000000 23.999998
v 24.000000 -1.000000 23.999998
v 24.000000 -1.000000 -23.999998
v -31.199999 -3.000000 -31.199997
v -31.199999 -3.000000 31.199997
v 31.199999 -3.000000 31.199997
v 31.199999 -3.000000 -31.199997
v -29.699999 0.000000 -29.699997
v -31.199999 -1.500000 -31.199997
v -29.933876 -0.726459 -29.933874
v -30.473541 -1.266122 -30.473539
v -31.199999 -1.500000 31.199997
v -29.699999 0.000000 29.699997
v -30.473541 -1.266122 30.473539
v -29.933876 -0.726459 29.933874
v 31.199999 -1.500000 31.199997
v 29.699999 0.000000 29.699997
v 30.473541 -1.266122 30.473539
v 29.933876 -0.726459 29.933874
v 31.199999 -1.500000 -31.199997
v 29.699999 0.000000 -29.699997
v 30.473541 -1.266122 -30.473539
v 29.933876 -0.726459 -29.933874
vn 0.3015 0.9045 -0.3015
vn -0.3015 0.9045 -0.3015
vn 0.3015 0.9045 0.3015
vn -0.3015 0.9045 0.3015
vn 0.5773 0.5774 0.5773
vn 0.5774 0.5773 -0.5773
vn -0.5773 0.5774 -0.5773
vn -0.5774 0.5773 0.5773
vn -0.5774 -0.5773 -0.5773
vn -0.5773 -0.5774 0.5773
vn 0.5774 -0.5773 0.5773
vn 0.5773 -0.5774 -0.5773
vn -0.4804 0.7337 -0.4804
vn -0.6065 0.5142 -0.6065
vn -0.5018 0.7045 -0.5018
vn -0.2273 0.9469 -0.2273
vn -0.6065 0.5142 0.6065
vn -0.4804 0.7337 0.4804
vn -0.2273 0.9469 0.2273
vn -0.5018 0.7045 0.5018
vn 0.6065 0.5142 0.6065
vn 0.4804 0.7337 0.4804
vn 0.2273 0.9469 0.2273
vn 0.5018 0.7045 0.5018
vn 0.6065 0.5142 -0.6065
vn 0.4804 0.7337 -0.4804
vn 0.2273 0.9469 -0.2273
vn 0.5018 0.7045 -0.5018
s 1
g Chessboard_Surround_Chessboard_surround
usemtl Chessboard_surround
f 6//6 3//3 1//1
f 7//7 5//5 6//6
f 12//12 14//14 25//25
f 9//9 17//17 14//14
f 10//10 21//21 17//17
f 11//11 25//25 21//21
f 5//5 4//4 3//3
f 7//7 1//1 2//2
f 8//8 2//2 4//4
f 26//26 3//3 4//4
f 22//22 4//4 2//2
f 18//18 2//2 1//1
f 12//12 10//10 9//9
f 17//17 16//16 14//14
f 19//19 15//15 16//16
f 20//20 13//13 15//15
f 21//21 19//19 17//17
f 23//23 20//20 19//19
f 24//24 18//18 20//20
f 25//25 23//23 21//21
f 27//27 24//24 23//23
f 28//28 22//22 24//24
f 14//14 27//27 25//25
f 16//16 28//28 27//27
f 15//15 26//26 28//28
f 13//13 1//1 3//3
f 6//6 5//5 3//3
f 7//7 8//8 5//5
f 12//12 9//9 14//14
f 9//9 10//10 17//17
f 10//10 11//11 21//21
f 11//11 12//12 25//25
f 5//5 8//8 4//4
f 7//7 6//6 1//1
f 8//8 7//7 2//2
f 26//26 13//13 3//3
f 22//22 26//26 4//4
f 18//18 22//22 2//2
f 12//12 11//11 10//10
f 17//17 19//19 16//16
f 19//19 20//20 15//15
f 20//20 18//18 13//13
f 21//21 23//23 19//19
f 23//23 24//24 20//20
f 24//24 22//22 18//18
f 25//25 27//27 23//23
f 27//27 28//28 24//24
f 28//28 26//26 22//22
f 14//14 16//16 27//27
f 16//16 15//15 28//28
f 15//15 13//13 26//26
f 13//13 18//18 1//1
o ChessBoard
v -24.000000 0.000000 23.999998
v -18.000000 0.000000 23.999998
v -12.000000 0.000000 23.999998
v -24.000000 0.000000 17.999998
v -18.000000 0.000000 17.999998
v -12.000000 0.000000 17.999998
v -24.000000 0.000000 11.999999
v -18.000000 0.000000 11.999999
v -12.000000 0.000000 11.999999
v -24.000000 0.000000 11.999999
v -18.000000 0.000000 11.999999
v -12.000000 0.000000 11.999999
v -24.000000 0.000000 6.000000
v -18.000000 0.000000 6.000000
v -12.000000 0.000000 6.000000
v -24.000000 0.000000 0.000000
v -18.000000 0.000000 0.000000
v -12.000000 0.000000 0.000000
v -24.000000 0.000000 0.000000
v -18.000000 0.000000 0.000000
v -12.000000 0.000000 0.000000
v -24.000000 0.000000 -6.000000
v -18.000000 0.000000 -6.000000
v -12.000000 0.000000 -6.000000
v -24.000000 0.000000 -11.999999
v -18.000000 0.000000 -11.999999
v -12.000000 0.000000 -11.999999
v -24.000000 0.000000 -11.999999
v -18.000000 0.000000 -11.999999
v -12.000000 0.000000 -11.999999
v -24.000000 0.000000 -17.999998
v -18.000000 0.000000 -17.999998
v -12.000000 0.000000 -17.999998
v -24.000000 0.000000 -23.999998
v -18.000000 0.000000 -23.999998
v -12.000000 0.000000 -23.999998
v -12.000000 0.000000 23.999998
v -6.000000 0.000000 23.999998
v 0.000000 0.000000 23.999998
v -12.000000 0.000000 17.999998
v -6.000000 0.000000 17.999998
v 0.000000 0.000000 17.999998
v -12.000000 0.000000 11.999999
v -6.000000 0.000000 11.999999
v 0.000000 0.000000 11.999999
v -12.000000 0.000000 11.999999
v -6.000000 0.000000 11.999999
v 0.000000 0.000000 11.999999
v -12.000000 0.000000 6.000000
v -6.000000 0.000000 6.000000
v 0.000000 0.000000 6.000000
v -12.000000 0.000000 0.000000
v -6.000000 0.000000 0.000000
v 0.000000 0.000000 0.000000
v -12.000000 0.000000 0.000000
v -6.000000 0.000000 0.000000
v 0.000000 0.000000 0.000000
v -12.000000 0.000000 -6.000000
v -6.000000 0.000000 -6.000000
v 0.000000 0.000000 -6.000000
v -12.000000 0.000000 -11.999999
v -6.000000 0.000000 -11.999999
v 0.000000 0.000000 -11.999999
v -12.000000 0.000000 -11.999999
v -6.000000 0.000000 -11.999999
v 0.000000 0.000000 -11.999999
v -12.000000 0.000000 -17.999998
v -6.000000 0.000000 -17.999998
v 0.000000 0.000000 -17.999998
v -12.000000 0.000000 -23.999998
v -6.000000 0.000000 -23.999998
v 0.000000 0.000000 -23.999998
v 0.000000 0.000000 23.999998
v 6.000000 0.000000 23.999998
v 12.000000 0.000000 23.999998
v 0.000000 0.000000 17.999998
v 6.000000 0.000000 17.999998
v 12.000000 0.000000 17.999998
v 0.000000 0.000000 11.999999
v 6.000000 0.000000 11.999999
v 12.000000 0.000000 11.999999
v 0.000000 0.000000 11.999999
v 6.000000 0.000000 11.999999
v 12.000000 0.000000 11.999999
v 0.000000 0.000000 6.000000
v 6.000000 0.000000 6.000000
v 12.000000 0.000000 6.000000
v 0.000000 0.000000 0.000000
v 6.000000 0.000000 0.000000
v 12.000000 0.000000 0.000000
v 0.000000 0.000000 0.000000
v 6.000000 0.000000 0.000000
v 12.000000 0.000000 0.000000
v 0.000000 0.000000 -6.000000
v 6.000000 0.000000 -6.000000
v 12.000000 0.000000 -6.000000
v 0.000000 0.000000 -11.999999
v 6.000000 0.000000 -11.999999
v 12.000000 0.000000 -11.999999
v 0.000000 0.000000 -11.999999
v 6.000000 0.000000 -11.999999
v 12.000000 0.000000 -11.999999
v 0.000000 0.000000 -17.999998
v 6.000000 0.000000 -17.999998
v 12.000000 0.000000 -17.999998
v 0.000000 0.000000 -23.999998
v 6.000000 0.000000 -23.999998
v 12.000000 0.000000 -23.999998
v 12.000000 0.000000 23.999998
v 18.000000 0.000000 23.999998
v 24.000000 0.000000 23.999998
v 12.000000 0.000000 17.999998
v 18.000000 0.000000 17.999998
v 24.000000 0.000000 17.999998
v 12.000000 0.000000 11.999999
v 18.000000 0.000000 11.999999
v 24.000000 0.000000 11.999999
v 12.000000 0.000000 11.999999
v 18.000000 0.000000 11.999999
v 24.000000 0.000000 11.999999
v 12.000000 0.000000 6.000000
v 18.000000 0.000000 6.000000
v 24.000000 0.000000 6.000000
v 12.000000 0.000000 0.000000
v 18.000000 0.000000 0.000000
v 24.000000 0.000000 0.000000
v 12.000000 0.000000 0.000000
v 18.000000 0.000000 0.000000
v 24.000000 0.000000 0.000000
v 12.000000 0.000000 -6.000000
v 18.000000 0.000000 -6.000000
v 24.000000 0.000000 -6.000000
v 12.000000 0.000000 -11.999999
v 18.000000 0.000000 -11.999999
v 24.000000 0.000000 -11.999999
v 12.000000 0.000000 -11.999999
v 18.000000 0.000000 -11.999999
v 24.000000 0.000000 -11.999999
v 12.000000 0.000000 -17.999998
v 18.000000 0.000000 -17.999998
v 24.000000 0.000000 -17.999998
v 12.000000 0.000000 -23.999998
v 18.000000 0.000000 -23.999998
v 24.000000 0.000000 -23.999998
vn -0.0000 1.0000 -0.0000
s 1
g ChessBoard_White
usemtl White
f 31//29 33//29 30//29
f 33//29 35//29 32//29
f 40//29 42//29 39//29
f 42//29 44//29 41//29
f 49//29 51//29 48//29
f 51//29 53//29 50//29
f 58//29 60//29 57//29
f 60//29 62//29 59//29
f 67//29 69//29 66//29
f 69//29 71//29 68//29
f 76//29 78//29 75//29
f 78//29 80//29 77//29
f 85//29 87//29 84//29
f 87//29 89//29 86//29
f 94//29 96//29 93//29
f 96//29 98//29 95//29
f 103//29 105//29 102//29
f 105//29 107//29 104//29
f 112//29 114//29 111//29
f 114//29 116//29 113//29
f 121//29 123//29 120//29
f 123//29 125//29 122//29
f 130//29 132//29 129//29
f 132//29 134//29 131//29
f 139//29 141//29 138//29
f 141//29 143//29 140//29
f 148//29 150//29 147//29
f 150//29 152//29 149//29
f 157//29 159//29 156//29
f 159//29 161//29 158//29
f 166//29 168//29 165//29
f 168//29 170//29 167//29
f 31//29 34//29 33//29
f 33//29 36//29 35//29
f 40//29 43//29 42//29
f 42//29 45//29 44//29
f 49//29 52//29 51//29
f 51//29 54//29 53//29
f 58//29 61//29 60//29
f 60//29 63//29 62//29
f 67//29 70//29 69//29
f 69//29 72//29 71//29
f 76//29 79//29 78//29
f 78//29 81//29 80//29
f 85//29 88//29 87//29
f 87//29 90//29 89//29
f 94//29 97//29 96//29
f 96//29 99//29 98//29
f 103//29 106//29 105//29
f 105//29 108//29 107//29
f 112//29 115//29 114//29
f 114//29 117//29 116//29
f 121//29 124//29 123//29
f 123//29 126//29 125//29
f 130//29 133//29 132//29
f 132//29 135//29 134//29
f 139//29 142//29 141//29
f 141//29 144//29 143//29
f 148//29 151//29 150//29
f 150//29 153//29 152//29
f 157//29 160//29 159//29
f 159//29 162//29 161//29
f 166//29 169//29 168//29
f 168//29 171//29 170//29
g ChessBoard_Black
usemtl Black
f 30//29 32//29 29//29
f 34//29 36//29 33//29
f 39//29 41//29 38//29
f 43//29 45//29 42//29
f 48//29 50//29 47//29
f 52//29 54//29 51//29
f 57//29 59//29 56//29
f 61//29 63//29 60//29
f 66//29 68//29 65//29
f 70//29 72//29 69//29
f 75//29 77//29 74//29
f 79//29 81//29 78//29
f 84//29 86//29 83//29
f 88//29 90//29 87//29
f 93//29 95//29 92//29
f 97//29 99//29 96//29
f 102//29 104//29 101//29
f 106//29 108//29 105//29
f 111//29 113//29 110//29
f 115//29 117//29 114//29
f 120//29 122//29 119//29
f 124//29 126//29 123//29
f 129//29 131//29 128//29
f 133//29 135//29 132//29
f 138//29 140//29 137//29
f 142//29 144//29 141//29
f 147//29 149//29 146//29
f 151//29 153//29 150//29
f 156//29 158//29 155//29
f 160//29 162//29 159//29
f 165//29 167//29 164//29
f 169//29 171//29 168//29
f 30//29 33//29 32//29
f 34//29 37//29 36//29
f 39//29 42//29 41//29
f 43//29 46//29 45//29
f 48//29 51//29 50//29
f 52//29 55//29 54//29
f 57//29 60//29 59//29
f 61//29 64//29 63//29
f 66//29 69//29 68//29
f 70//29 73//29 72//29
f 75//29 78//29 77//29
f 79//29 82//29 81//29
f 84//29 87//29 86//29
f 88//29 91//29 90//29
f 93//29 96//29 95//29
f 97//29 100//29 99//29
f 102//29 105//29 104//29
f 106//29 109//29 108//29
f 111//29 114//29 113//29
f 115//29 118//29 117//29
f 120//29 123//29 122//29
f 124//29 127//29 126//29
f 129//29 132//29 131//29
f 133//29 136//29 135//29
f 138//29 141//29 140//29
f 142//29 145//29 144//29
f 147//29 150//29 149//29
f 151//29 154//29 153//29
f 156//29 159//29 158//29
f 160//29 163//29 162//29
f 165//29 168//29 167//29
f 169//29 172//29 171//29
